{
  "asset": {
    "version": "2.0",
    "generator": "Aether generate_samples.py"
  },
  "scene": 0,
  "scenes": [
    {
      "name": "SkinnedScene",
      "nodes": [
        0
      ]
    }
  ],
  "nodes": [
    {
      "name": "Armature",
      "children": [
        1,
        4
      ]
    },
    {
      "name": "Bone_Root",
      "children": [
        2
      ]
    },
    {
      "name": "Bone_Mid",
      "children": [
        3
      ],
      "translation": [
        0.0,
        1.0,
        0.0
      ]
    },
    {
      "name": "Bone_Tip",
      "translation": [
        0.0,
        1.0,
        0.0
      ]
    },
    {
      "name": "SkinnedBar",
      "mesh": 0,
      "skin": 0
    }
  ],
  "skins": [
    {
      "name": "BarSkeleton",
      "inverseBindMatrices": 6,
      "joints": [
        3,
        1,
        2
      ],
      "skeleton": 1
    }
  ],
  "meshes": [
    {
      "name": "SkinnedBar",
      "primitives": [
        {
          "attributes": {
            "POSITION": 0,
            "NORMAL": 1,
            "TEXCOORD_0": 2,
            "JOINTS_0": 3,
            "WEIGHTS_0": 4
          },
          "indices": 5,
          "material": 0
        }
      ]
    }
  ],
  "materials": [
    {
      "name": "BarMaterial",
      "pbrMetallicRoughness": {
        "baseColorFactor": [
          0.2,
          0.6,
          1.0,
          1.0
        ],
        "metallicFactor": 0.0,
        "roughnessFactor": 0.7
      }
    }
  ],
  "animations": [
    {
      "name": "Wave",
      "samplers": [
        {
          "input": 7,
          "output": 8,
          "interpolation": "LINEAR"
        },
        {
          "input": 9,
          "output": 10,
          "interpolation": "STEP"
        },
        {
          "input": 11,
          "output": 12,
          "interpolation": "CUBICSPLINE"
        }
      ],
      "channels": [
        {
          "sampler": 0,
          "target": {
            "node": 2,
            "path": "rotation"
          }
        },
        {
          "sampler": 1,
          "target": {
            "node": 1,
            "path": "translation"
          }
        },
        {
          "sampler": 2,
          "target": {
            "node": 3,
            "path": "scale"
          }
        }
      ]
    }
  ],
  "buffers": [
    {
      "byteLength": 2228,
      "uri": "data:application/octet-stream;base64,"
    }
  ],
  "bufferViews": [
    {
      "buffer": 0,
      "byteOffset": 0,
      "byteLength": 480,
      "target": 34962
    },
    {
      "buffer": 0,
      "byteOffset": 480,
      "byteLength": 480,
      "target": 34962
    },
    {
      "buffer": 0,
      "byteOffset": 960,
      "byteLength": 320,
      "target": 34962
    },
    {
      "buffer": 0,
      "byteOffset": 1280,
      "byteLength": 160,
      "target": 34962
    },
    {
      "buffer": 0,
      "byteOffset": 1440,
      "byteLength": 160,
      "target": 34962
    },
    {
      "buffer": 0,
      "byteOffset": 1600,
      "byteLength": 168,
      "target": 34963
    },
    {
      "buffer": 0,
      "byteOffset": 1768,
      "byteLength": 192
    },
    {
      "buffer": 0,
      "byteOffset": 1960,
      "byteLength": 20
    },
    {
      "buffer": 0,
      "byteOffset": 1980,
      "byteLength": 80
    },
    {
      "buffer": 0,
      "byteOffset": 2060,
      "byteLength": 12
    },
    {
      "buffer": 0,
      "byteOffset": 2072,
      "byteLength": 36
    },
    {
      "buffer": 0,
      "byteOffset": 2108,
      "byteLength": 12
    },
    {
      "buffer": 0,
      "byteOffset": 2120,
      "byteLength": 108
    }
  ],
  "accessors": [
    {
      "bufferView": 0,
      "componentType": 5126,
      "count": 40,
      "type": "VEC3",
      "min": [
        -0.1,
        0.0,
        -0.1
      ],
      "max": [
        0.1,
        3.0,
        0.1
      ]
    },
    {
      "bufferView": 1,
      "componentType": 5126,
      "count": 40,
      "type": "VEC3"
    },
    {
      "bufferView": 2,
      "componentType": 5126,
      "count": 40,
      "type": "VEC2"
    },
    {
      "bufferView": 3,
      "componentType": 5121,
      "count": 40,
      "type": "VEC4"
    },
    {
      "bufferView": 4,
      "componentType": 5121,
      "count": 40,
      "type": "VEC4",
      "normalized": true
    },
    {
      "bufferView": 5,
      "componentType": 5123,
      "count": 84,
      "type": "SCALAR"
    },
    {
      "bufferView": 6,
      "componentType": 5126,
      "count": 3,
      "type": "MAT4"
    },
    {
      "bufferView": 7,
      "componentType": 5126,
      "count": 5,
      "type": "SCALAR",
      "min": [
        0.0
      ],
      "max": [
        2.0
      ]
    },
    {
      "bufferView": 8,
      "componentType": 5126,
      "count": 5,
      "type": "VEC4"
    },
    {
      "bufferView": 9,
      "componentType": 5126,
      "count": 3,
      "type": "SCALAR",
      "min": [
        0.0
      ],
      "max": [
        2.0
      ]
    },
    {
      "bufferView": 10,
      "componentType": 5126,
      "count": 3,
      "type": "VEC3"
    },
    {
      "bufferView": 11,
      "componentType": 5126,
      "count": 3,
      "type": "SCALAR",
      "min": [
        0.0
      ],
      "max": [
        2.0
      ]
    },
    {
      "bufferView": 12,
      "componentType": 5126,
      "count": 9,
      "type": "VEC3"
    }
  ]
}
